HIERARCHY
ROOT Hips
{
	OFFSET	0.00	0.00	0.00
	CHANNELS 6 Xposition Yposition Zposition Zrotation Xrotation Yrotation
	JOINT Spine
	{
		OFFSET	 0.00	0.01	 0.00
		CHANNELS 3 Zrotation Xrotation Yrotation
		JOINT Spine1
		{
			OFFSET	 0.00	 2.45913012437421	 0.00
			CHANNELS 3 Zrotation Xrotation Yrotation
            JOINT Neck
            {
                OFFSET	 0.00	 2.48462964506057	 0.00
                CHANNELS 3 Zrotation Xrotation Yrotation
                JOINT Head
                {
                    OFFSET	 0.00	 0.927524780924562	 0.00
                    CHANNELS 3 Zrotation Xrotation Yrotation
                    End Site 
                    {
                        OFFSET	 0.00	 1.14999962169752	 0.00
                    }
                }
            }
			JOINT LeftShoulder
			{
				OFFSET	 0.00	 2.48462964506057	 0.00
				CHANNELS 3 Zrotation Xrotation Yrotation
				JOINT LeftUpArm
				{
					OFFSET	 0.00	 1.24881979654096	 0.00
					CHANNELS 3 Zrotation Xrotation Yrotation
					JOINT LeftForeArm
					{
						OFFSET	 0.00	2.59758046908119	 0.00
						CHANNELS 3 Zrotation Xrotation Yrotation
						JOINT LeftHand
						{
							OFFSET	 0.00	2.45542024364365	 0.00
							CHANNELS 3 Zrotation Xrotation Yrotation
							JOINT LeftHandThumb 
							{
								OFFSET	 0.00	0.00	 0.00
								CHANNELS 3 Zrotation Xrotation Yrotation
								End Site
								{
									OFFSET	 0.00	0.00	1.00000003353624
								}
							}
							JOINT L_Wrist_End 
							{
								OFFSET	 0.00	0.99999967115358	 0.00
								CHANNELS 3 Zrotation Xrotation Yrotation
								End Site 
								{
									OFFSET	 0.00	 0.00	 0.00
								}
							}
						}
					}
				}
			}
			JOINT RightShoulder
			{
				OFFSET	 0.00	 2.48462964506057	 0.00
				CHANNELS 3 Zrotation Xrotation Yrotation
				JOINT RightUpArm
				{
					OFFSET	 0.00	 1.24881979654096	 0.00
					CHANNELS 3 Zrotation Xrotation Yrotation
					JOINT RightForeArm
					{
						OFFSET	 0.00	2.59758046908119	 0.00
						CHANNELS 3 Zrotation Xrotation Yrotation
						JOINT RightHand
						{
							OFFSET	 0.00	2.45542024364365	 0.00
							CHANNELS 3 Zrotation Xrotation Yrotation
							JOINT RightHandThumb 
							{
								OFFSET	 0.00	0.00	 0.00
								CHANNELS 3 Zrotation Xrotation Yrotation
								End Site
								{
									OFFSET	 0.00	0.00	1.00000003353624
								}
							}
							JOINT R_Wrist_End 
							{
								OFFSET	 0.00	0.99999967115358	 0.00
								CHANNELS 3 Zrotation Xrotation Yrotation
								End Site 
								{
									OFFSET	 0.00	 0.00	 0.00
								}
							}
						}
					}
				}
			}
		}
	}
	JOINT LeftUpLeg
	{
		OFFSET	 1.2719394002717	 0.00	 0.00
		CHANNELS 3 Zrotation Xrotation Yrotation
		JOINT LeftLowLeg
		{
			OFFSET	 0.00	-4.3429100912261	 0.00
			CHANNELS 3 Zrotation Xrotation Yrotation
			JOINT LeftFoot
			{
				OFFSET	 0.00	-4.48767017425826	 0.00
				CHANNELS 3 Zrotation Xrotation Yrotation
				JOINT LeftToeBase
                {
                    OFFSET	 0.00	0.00	 1.51507020887566
                    CHANNELS 3 Zrotation Xrotation Yrotation
                    End Site 
                    {
                        OFFSET	 0.00	0.00	 0.75000010571191
                    }
                }
			}
		}
	}
	JOINT RightUpLeg
	{
		OFFSET	 -1.2719393604653	 0.00	 0.00
		CHANNELS 3 Zrotation Xrotation Yrotation
		JOINT RightLowLeg
		{
			OFFSET	 0.00	-4.3429100912261	 0.00
			CHANNELS 3 Zrotation Xrotation Yrotation
			JOINT RightFoot
			{
				OFFSET	 0.00	-4.48767017425826	 0.00
				CHANNELS 3 Zrotation Xrotation Yrotation
				JOINT RightToeBase
                {
                    OFFSET	 0.00	0.00	 1.51507020887566
                    CHANNELS 3 Zrotation Xrotation Yrotation
                    End Site 
                    {
                        OFFSET	 0.00	0.00	 0.749999965609858
                    }
                }   
			}
		}
	}
}
MOTION 
Frames:	15 
Frame Time: 0.02 
 0.7077300262451172 4.224190063476563 9.365180053710937 -153.872 80.5393 508.549 4.18533 -6.8541 0.269168 3.1472 -12.5528 0.695067 -15.6307 65.891 365.562 83.5044 -78.6203 786.781 -114.3592 -10.8744 -11.9306 16.6002 12.9704 -25.5961 0.0 5.76049 0.0 22.5163 -7.34095 29.8807 0.0 0.0 0.0 0.0 0.0 0.0 110.2083 -3.92633 -355.916 -10.2751 -1.19149 49.5404 0.0 15.9199 0.0 -24.1478 -12.0959 -47.2985 0.0 0.0 0.0 0.0 0.0 0.0 4.27286 -3.98766 6.98943 0.0 7.4319 0.0 -17.5747 -2.2635002 10.7586 0.0 -32.2331 0.0 7.06986 -6.5834 11.1988 0.0 7.11561 0.0 14.7771 6.9291697 -16.2655 0.0 -31.098 0.0 
  0.7060449981689453 4.220150146484375 9.364910278320313 -153.864 80.5115 508.662 4.17453 -6.92716 0.251464 3.12244 -12.51 0.677631 -15.5689 66.0755 365.5 83.2234 -78.5512 786.493 -114.3508 -10.8978 -11.897 16.5527 12.8628 -25.6569 0.0 5.79428 0.0 22.4969 -7.33571 30.0718 0.0 0.0 0.0 0.0 0.0 0.0 110.2177 -3.98009 -355.886 -10.3058 -1.19524 49.487 0.0 15.9415 0.0 -24.1495 -12.0605 -47.3497 0.0 0.0 0.0 0.0 0.0 0.0 4.29158 -3.99975 6.98407 0.0 7.41274 0.0 -17.5961 -2.2360992 10.6623 0.0 -32.2735 0.0 7.0859 -6.58071 11.1839 0.0 7.12621 0.0 14.8009 6.8653297 -16.3369 0.0 -31.05 0.0 
  0.7048290252685547 4.216740112304688 9.364760131835938 -153.732 80.5144 508.643 4.17113 -6.9526 0.253412 3.10332 -12.4599 0.679048 -15.6674 66.2309 365.636 82.9718 -78.5009 786.156 -114.3576 -10.9344 -11.8618 16.5121 12.8421 -25.6197 0.0 5.76916 0.0 22.5002 -7.38578 30.079 0.0 0.0 0.0 0.0 0.0 0.0 110.1992 -4.01992 -355.814 -10.3016 -1.25005 49.3977 0.0 16.0035 0.0 -24.19 -12.2281 -47.2451 0.0 0.0 0.0 0.0 0.0 0.0 4.30693 -3.9767 6.91777 0.0 7.39602 0.0 -17.6134 -2.2322006 10.6254 0.0 -32.211998 0.0 7.0988 -6.54349 11.155 0.0 7.13344 0.0 14.8054 6.81726 -16.3963 0.0 -31.0314 0.0 
  0.7039589691162109 4.212529907226562 9.36489990234375 -153.66 80.5027 508.677 4.20124 -7.01039 0.274142 3.01474 -12.4002 0.695719 -15.4712 66.4126 365.431 82.6826 -78.4035 785.872 -114.3396 -10.9558 -11.8203 16.4725 12.8501 -25.5826 0.0 5.73875 0.0 22.5693 -7.35833 30.0705 0.0 0.0 0.0 0.0 0.0 0.0 110.2345 -4.08711 -355.838 -10.3295 -1.30955 49.4999 0.0 15.9897 0.0 -24.134 -12.2564 -47.1131 0.0 0.0 0.0 0.0 0.0 0.0 4.31888 -3.95491 6.8777 0.0 7.35422 0.0 -17.6106 -2.206499 10.5855 0.0 -32.203598 0.0 7.10763 -6.51781 11.124 0.0 7.13523 0.0 14.8073 6.7792997 -16.4454 0.0 -30.964699 0.0 
  0.7026709747314454 4.208450012207031 9.36510986328125 -153.598 80.4867 508.773 4.21606 -7.08444 0.284128 2.92618 -12.3347 0.703824 -15.277 66.6108 365.237 82.3262 -78.2935 785.515 -114.3711 -10.9885 -11.7328 16.5617 13.0338 -25.3529 0.0 5.43617 0.0 22.6339 -7.23069 29.6347 0.0 0.0 0.0 0.0 0.0 0.0 110.3174 -4.25534 -355.99 -10.4121 -1.30114 49.7092 0.0 15.9494 0.0 -24.114 -12.3616 -47.1113 0.0 0.0 0.0 0.0 0.0 0.0 4.33226 -3.9557 6.77203 0.0 7.32483 0.0 -17.6065 -2.1721992 10.5473 0.0 -32.2145 0.0 7.11277 -6.48502 11.0771 0.0 7.11322 0.0 14.8314 6.74006 -16.5161 0.0 -30.9673 0.0 
  0.7010769653320312 4.205039978027344 9.364959716796875 -153.482 80.4877 508.807 4.18869 -7.12224 0.269454 2.90005 -12.2789 0.692455 -15.2068 66.786 365.2 82.0214 -78.1854 785.248 -114.4237 -10.9878 -11.7411 16.5733 13.0603 -25.4333 0.0 5.42499 0.0 22.8708 -7.1104 29.8031 0.0 0.0 0.0 0.0 0.0 0.0 110.3462 -4.25708 -356.04 -10.4565 -1.43777 49.7999 0.0 15.9161 0.0 -23.9984 -12.3361 -47.0707 0.0 0.0 0.0 0.0 0.0 0.0 4.34929 -3.94043 6.71576 0.0 7.29928 0.0 -17.6357 -2.1390991 10.465 0.0 -32.2418 0.0 7.12315 -6.4391 11.0333 0.0 7.09441 0.0 14.8198 6.7091904 -16.6102 0.0 -30.970001 0.0 
  0.6997309875488281 4.201910095214844 9.3647802734375 -153.349 80.4944 508.798 4.16275 -7.15765 0.253533 2.89622 -12.2294 0.679092 -15.1524 66.9797 365.137 81.7342 -78.1166 785.042 -114.3403 -11.052 -11.6954 16.3932 12.9427 -25.3067 0.0 5.70026 0.0 22.7246 -7.19842 29.7728 0.0 0.0 0.0 0.0 0.0 0.0 110.3451 -4.28222 -356.042 -10.4491 -1.44016 50.0237 0.0 15.9816 0.0 -24.1369 -12.6166 -47.3393 0.0 0.0 0.0 0.0 0.0 0.0 4.36193 -3.91609 6.64236 0.0 7.27477 0.0 -17.6372 -2.1280003 10.4383 0.0 -32.1951 0.0 7.13341 -6.3953 10.9782 0.0 7.09244 0.0 14.8573 6.65057 -16.6418 0.0 -30.924599 0.0 
  0.6982689666748046 4.198519897460938 9.364949951171875 -153.284 80.4761 508.881 4.13827 -7.22161 0.230287 2.88064 -12.1763 0.658025 -15.036 67.1764 365.01 81.6182 -78.0395 784.952 -114.3433 -11.1055 -11.6983 16.36 12.9864 -25.3442 0.0 5.75019 0.0 22.6936 -7.25865 29.857 0.0 0.0 0.0 0.0 0.0 0.0 110.3644 -4.33606 -356.046 -10.4817 -1.39106 50.2522 0.0 15.8736 0.0 -24.29 -12.5428 -47.5142 0.0 0.0 0.0 0.0 0.0 0.0 4.37866 -3.92597 6.55996 0.0 7.25582 0.0 -17.6378 -2.0998993 10.3961 0.0 -32.1879 0.0 7.14669 -6.38291 10.9 0.0 7.09789 0.0 14.8376 6.6174498 -16.6983 0.0 -30.9025 0.0 
  0.6972119903564453 4.195230102539062 9.365 -153.184 80.4789 508.926 4.12824 -7.28328 0.221287 2.84675 -12.0902 0.648602 -14.9201 67.3761 364.878 81.4727 -77.9704 784.805 -114.3836 -11.1544 -11.7413 16.3786 13.1061 -25.1994 0.0 5.68863 0.0 22.6065 -7.27909 29.7378 0.0 0.0 0.0 0.0 0.0 0.0 110.3859 -4.41287 -356.018 -10.5261 -1.40797 50.0475 0.0 15.8718 0.0 -24.2922 -12.7118 -47.172 0.0 0.0 0.0 0.0 0.0 0.0 4.38983 -3.92019 6.49655 0.0 7.24675 0.0 -17.6437 -2.0676003 10.3319 0.0 -32.2203 0.0 7.15071 -6.33103 10.9093 0.0 7.0693 0.0 14.8944 6.55976 -16.8104 0.0 -30.9072 0.0 
  0.6960459899902344 4.1923001098632815 9.364760131835938 -153.076 80.4739 508.952 4.14172 -7.33378 0.225905 2.77941 -12.0557 0.651662 -14.8081 67.609 364.751 81.0802 -77.8895 784.423 -114.3762 -11.1569 -11.8026 16.3248 13.1542 -25.2755 0.0 5.74299 0.0 22.5507 -7.23839 29.6891 0.0 0.0 0.0 0.0 0.0 0.0 110.4197 -4.47803 -355.983 -10.5377 -1.40065 50.2823 0.0 15.8426 0.0 -24.2684 -12.6559 -47.3039 0.0 0.0 0.0 0.0 0.0 0.0 4.40734 -3.92652 6.40872 0.0 7.25342 0.0 -17.665 -2.0613995 10.2871 0.0 -32.217 0.0 7.15756 -6.31133 10.7283 0.0 7.08094 0.0 14.8662 6.5448103 -16.7574 0.0 -30.8858 0.0 
  0.6949310302734375 4.189729919433594 9.364520263671874 -152.968 80.4794 508.988 4.12506 -7.37228 0.219505 2.7448 -12.0222 0.648143 -14.5769 67.8484 364.476 80.7079 -77.8047 784.079 -114.3869 -11.1604 -11.7965 16.3125 13.1817 -25.3747 0.0 5.80898 0.0 22.5004 -7.29142 29.765 0.0 0.0 0.0 0.0 0.0 0.0 110.4083 -4.55537 -355.964 -10.4852 -1.37536 50.4069 0.0 15.8973 0.0 -24.3728 -12.781 -47.4103 0.0 0.0 0.0 0.0 0.0 0.0 4.41868 -3.92447 6.3023 0.0 7.24937 0.0 -17.6921 -2.0534 10.246 0.0 -32.2289 0.0 7.15981 -6.27277 10.6159 0.0 7.07156 0.0 14.8604 6.5126696 -16.7774 0.0 -30.8694 0.0 
  0.6938349914550781 4.186929931640625 9.364169921875 -152.939 80.4693 509.059 4.11033 -7.4493 0.219613 2.73037 -11.9568 0.649564 -14.5369 68.064 364.418 80.453 -77.755 783.809 -114.4031 -11.1821 -11.7699 16.302 13.1835 -25.3706 0.0 5.87045 0.0 22.4775 -7.33374 29.8636 0.0 0.0 0.0 0.0 0.0 0.0 110.4193 -4.57916 -355.949 -10.4911 -1.39608 50.5179 0.0 15.9274 0.0 -24.226 -12.7378 -47.5046 0.0 0.0 0.0 0.0 0.0 0.0 4.42766 -3.9336 6.23238 0.0 7.24887 0.0 -17.6944 -2.0547009 10.2238 0.0 -32.2234 0.0 7.16627 -6.26173 10.5747 0.0 7.07742 0.0 14.8675 6.47151 -16.8183 0.0 -30.8648 0.0 
  0.6927400207519532 4.1842498779296875 9.36385009765625 -152.872 80.474 509.08 4.09841 -7.51302 0.218438 2.71085 -11.8782 0.648806 -14.438 68.2616 364.28 80.3162 -77.7174 783.69 -114.4335 -11.2098 -11.7554 16.3175 13.1987 -25.3766 0.0 5.88061 0.0 22.4903 -7.30647 29.8988 0.0 0.0 0.0 0.0 0.0 0.0 110.451096 -4.61552 -355.909 -10.5275 -1.36957 50.4108 0.0 15.9139 0.0 -24.2294 -12.7309 -47.4006 0.0 0.0 0.0 0.0 0.0 0.0 4.43641 -3.92124 6.18432 0.0 7.24043 0.0 -17.6938 -2.0543995 10.1984 0.0 -32.2145 0.0 7.17127 -6.23625 10.5058 0.0 7.0852 0.0 14.8594 6.4344196 -16.825 0.0 -30.8606 0.0 
  0.6915260314941406 4.181570129394531 9.363389892578125 -152.785 80.4919 509.073 4.06946 -7.57206 0.21056 2.71636 -11.7925 0.643516 -14.4256 68.451 364.233 80.178 -77.6983 783.573 -114.4638 -11.2494 -11.748 16.3491 13.2551 -25.3397 0.0 5.80295 0.0 22.4418 -7.27907 29.703 0.0 0.0 0.0 0.0 0.0 0.0 110.469604 -4.6188 -355.929 -10.5582 -1.38252 50.3375 0.0 15.9125 0.0 -24.1151 -12.7139 -47.1415 0.0 0.0 0.0 0.0 0.0 0.0 4.44209 -3.89389 6.13956 0.0 7.23414 0.0 -17.6916 -2.0473995 10.1701 0.0 -32.2187 0.0 7.17462 -6.19276 10.4735 0.0 7.08341 0.0 14.8477 6.3997498 -16.8656 0.0 -30.847599 0.0 
  0.6899569702148437 4.1788198852539065 9.362979736328125 -152.71 80.4989 509.078 4.02757 -7.64005 0.202057 2.74524 -11.7248 0.640212 -14.373 68.6087 364.141 79.7809 -77.6817 783.179 -114.473404 -11.2593 -11.7493 16.3174 13.2239 -25.319 0.0 5.85226 0.0 22.3916 -7.3336 29.6718 0.0 0.0 0.0 0.0 0.0 0.0 110.4611 -4.59587 -356.005 -10.5654 -1.44088 50.1941 0.0 15.9166 0.0 -24.0962 -12.7733 -46.8781 0.0 0.0 0.0 0.0 0.0 0.0 4.45378 -3.8835 6.0819 0.0 7.2415 0.0 -17.7149 -2.0625 10.1412 0.0 -32.2206 0.0 7.18508 -6.16628 10.446 0.0 7.09746 0.0 14.8621 6.34216 -16.8953 0.0 -30.8218 0.0 
